<?xml version="1.0" encoding="UTF-8" standalone="no"?>
<!-- Created with Inkscape (http://www.inkscape.org/) -->

<svg
   width="101.17906mm"
   height="48.262108mm"
   viewBox="0 0 101.17906 48.262108"
   version="1.1"
   id="svg1"
   xml:space="preserve"
   inkscape:version="1.4 (86a8ad7, 2024-10-11)"
   sodipodi:docname="logo_dark.svg"
   xmlns:inkscape="http://www.inkscape.org/namespaces/inkscape"
   xmlns:sodipodi="http://sodipodi.sourceforge.net/DTD/sodipodi-0.dtd"
   xmlns:xlink="http://www.w3.org/1999/xlink"
   xmlns="http://www.w3.org/2000/svg"
   xmlns:svg="http://www.w3.org/2000/svg"><sodipodi:namedview
     id="namedview1"
     pagecolor="#191919"
     bordercolor="#000000"
     borderopacity="0.25"
     inkscape:showpageshadow="2"
     inkscape:pageopacity="0.0"
     inkscape:pagecheckerboard="true"
     inkscape:deskcolor="#d1d1d1"
     inkscape:document-units="mm"
     inkscape:zoom="2.4525789"
     inkscape:cx="136.18318"
     inkscape:cy="97.244578"
     inkscape:window-width="2560"
     inkscape:window-height="1369"
     inkscape:window-x="-8"
     inkscape:window-y="-8"
     inkscape:window-maximized="1"
     inkscape:current-layer="layer1"
     showgrid="true"><inkscape:grid
       id="grid10"
       units="mm"
       originx="-15.057088"
       originy="-6.3525663"
       spacingx="0.99999998"
       spacingy="1"
       empcolor="#0099e5"
       empopacity="0.30196078"
       color="#0099e5"
       opacity="0.14901961"
       empspacing="5"
       enabled="true"
       visible="true" /></sodipodi:namedview><defs
     id="defs1"><inkscape:path-effect
       effect="powerclip"
       message=""
       id="path-effect24"
       is_visible="true"
       lpeversion="1"
       inverse="true"
       flatten="false"
       hide_clip="false" /><inkscape:path-effect
       effect="powerclip"
       message=""
       id="path-effect21"
       is_visible="true"
       lpeversion="1"
       inverse="true"
       flatten="false"
       hide_clip="false" /><inkscape:path-effect
       effect="powerclip"
       message=""
       id="path-effect20"
       is_visible="true"
       lpeversion="1"
       inverse="true"
       flatten="false"
       hide_clip="false" /><linearGradient
       id="linearGradient3"
       inkscape:collect="always"><stop
         style="stop-color:#98e6fc;stop-opacity:1;"
         offset="0"
         id="stop3" /><stop
         style="stop-color:#283593;stop-opacity:1;"
         offset="1"
         id="stop4" /></linearGradient><inkscape:path-effect
       effect="spiro"
       id="path-effect7"
       is_visible="true"
       lpeversion="1" /><inkscape:path-effect
       effect="skeletal"
       id="path-effect6"
       is_visible="true"
       lpeversion="1"
       pattern="M 0,0 H 1"
       copytype="single_stretched"
       prop_scale="1"
       scale_y_rel="false"
       spacing="0"
       normal_offset="0"
       tang_offset="0"
       prop_units="false"
       vertical_pattern="false"
       hide_knot="false"
       fuse_tolerance="0" /><inkscape:path-effect
       effect="bspline"
       id="path-effect5"
       is_visible="true"
       lpeversion="1.3"
       weight="33.333333"
       steps="2"
       helper_size="0"
       apply_no_weight="true"
       apply_with_weight="true"
       only_selected="false"
       uniform="false" /><inkscape:path-effect
       effect="bspline"
       id="path-effect4"
       is_visible="true"
       lpeversion="1.3"
       weight="33.333333"
       steps="2"
       helper_size="0"
       apply_no_weight="true"
       apply_with_weight="true"
       only_selected="false"
       uniform="false" /><inkscape:path-effect
       effect="bspline"
       id="path-effect3"
       is_visible="true"
       lpeversion="1.3"
       weight="33.333333"
       steps="2"
       helper_size="0"
       apply_no_weight="true"
       apply_with_weight="true"
       only_selected="false"
       uniform="false" /><inkscape:path-effect
       effect="spiro"
       id="path-effect2"
       is_visible="true"
       lpeversion="1" /><inkscape:path-effect
       effect="spiro"
       id="path-effect1"
       is_visible="true"
       lpeversion="1" /><linearGradient
       inkscape:collect="always"
       xlink:href="#linearGradient3"
       id="linearGradient4"
       x1="198.88322"
       y1="241.56577"
       x2="60.117912"
       y2="19.49486"
       gradientUnits="userSpaceOnUse" /><clipPath
       clipPathUnits="userSpaceOnUse"
       id="clipPath20"><path
         style="display:none;fill:none;fill-opacity:1;stroke:#f1f1f1;stroke-width:11.8737;stroke-linecap:square;stroke-linejoin:miter;stroke-dasharray:none;stroke-dashoffset:0;stroke-opacity:0.979487;paint-order:fill markers stroke"
         d="m -166.68966,163.1914 c 0,0 91.31606,-49.94371 167.28774585,34.58851 C 76.569768,282.31212 172.86654,233.39823 172.86654,233.39823 c 0,0 91.06904,-49.99479 167.04072,34.53743 75.97168,84.53221 172.51079,35.66842 172.51079,35.66842 0,0 91.31136,-49.94468 167.28304,34.58753 L 655.53282,455.08176 -190.85793,280.08155 Z"
         id="path20"
         sodipodi:nodetypes="cscsccccc" /><path
         id="lpe_path-effect20"
         style="fill:none;fill-opacity:1;stroke:#f1f1f1;stroke-width:11.8737;stroke-linecap:square;stroke-linejoin:miter;stroke-dasharray:none;stroke-dashoffset:0;stroke-opacity:0.979487;paint-order:fill markers stroke"
         class="powerclip"
         d="M -6.4300114,191.38786 H 265.43122 v 84.99813 H -6.4300114 Z M -166.68966,163.1914 -190.85793,280.08155 655.53282,455.08176 679.70109,338.19161 C 603.72941,253.6594 512.41805,303.60408 512.41805,303.60408 c 0,0 -96.53911,48.86379 -172.51079,-35.66842 -75.97168,-84.53222 -167.04072,-34.53743 -167.04072,-34.53743 0,0 -96.296772,48.91389 -172.26845415,-35.61832 C -75.3736,113.24769 -166.68966,163.1914 -166.68966,163.1914 Z" /></clipPath><clipPath
       clipPathUnits="userSpaceOnUse"
       id="clipPath21"><path
         style="display:none;fill:none;fill-opacity:1;stroke:#000000;stroke-width:1.20005;stroke-linecap:square;stroke-linejoin:miter;stroke-dasharray:none;stroke-dashoffset:0;stroke-opacity:0;paint-order:fill markers stroke"
         d="m 21.42748,46.051465 c 0,0 6.879167,-7.937499 14.816668,0 7.937499,7.937499 15.257806,0 15.257806,0 0,0 6.857289,-7.937499 14.794788,0 7.937502,7.937499 15.279272,0 15.279272,0 0,0 6.87875,-7.937499 14.816252,0 V 60.10871 H 21.42748 Z"
         id="path21"
         sodipodi:nodetypes="cscsccccc" /><path
         id="lpe_path-effect21"
         style="fill:none;fill-opacity:1;stroke:#000000;stroke-width:1.20005;stroke-linecap:square;stroke-linejoin:miter;stroke-dasharray:none;stroke-dashoffset:0;stroke-opacity:0;paint-order:fill markers stroke"
         class="powerclip"
         d="M 16.427438,33.135143 H 101.39222 V 60.720165 H 16.427438 Z M 21.42748,46.051465 V 60.10871 H 96.392266 V 46.051465 c -7.937502,-7.937499 -14.816252,0 -14.816252,0 0,0 -7.34177,7.937499 -15.279272,0 -7.937499,-7.937499 -14.794788,0 -14.794788,0 0,0 -7.320307,7.937499 -15.257806,0 -7.937501,-7.937499 -14.816668,0 -14.816668,0 z" /></clipPath><clipPath
       clipPathUnits="userSpaceOnUse"
       id="clipPath24"><path
         style="display:none;fill:none;fill-opacity:1;stroke:#000000;stroke-width:1.20005;stroke-linecap:square;stroke-linejoin:miter;stroke-dasharray:none;stroke-dashoffset:0;stroke-opacity:0;paint-order:fill markers stroke"
         d="m 21.42748,50.94269 c 0,0 6.879167,-7.937499 14.816668,0 7.937499,7.9375 15.257804,0 15.257804,0 0,0 6.857291,-7.937499 14.79479,0 7.937502,7.9375 15.27927,0 15.27927,0 0,0 6.87875,-7.937499 14.816252,0 V 64.999935 H 21.42748 Z"
         id="path24"
         sodipodi:nodetypes="cscsccccc" /><path
         id="lpe_path-effect24"
         style="fill:none;fill-opacity:1;stroke:#000000;stroke-width:1.20005;stroke-linecap:square;stroke-linejoin:miter;stroke-dasharray:none;stroke-dashoffset:0;stroke-opacity:0;paint-order:fill markers stroke"
         class="powerclip"
         d="m 16.42748,38.922489 h 84.96478 V 66.507511 H 16.42748 Z m 5,12.020201 V 64.999935 H 96.392264 V 50.94269 c -7.937502,-7.937499 -14.816252,0 -14.816252,0 0,0 -7.341768,7.9375 -15.27927,0 -7.937499,-7.937499 -14.79479,0 -14.79479,0 0,0 -7.320305,7.9375 -15.257804,0 -7.937501,-7.937499 -14.816668,0 -14.816668,0 z" /></clipPath><linearGradient
       inkscape:collect="always"
       xlink:href="#linearGradient3"
       id="linearGradient25"
       gradientUnits="userSpaceOnUse"
       x1="198.88322"
       y1="241.56577"
       x2="60.117912"
       y2="19.49486" /><linearGradient
       inkscape:collect="always"
       xlink:href="#linearGradient3"
       id="linearGradient26"
       gradientUnits="userSpaceOnUse"
       x1="198.88322"
       y1="241.56577"
       x2="60.117912"
       y2="19.49486" /><linearGradient
       inkscape:collect="always"
       xlink:href="#linearGradient3"
       id="linearGradient27"
       gradientUnits="userSpaceOnUse"
       x1="198.88322"
       y1="241.56577"
       x2="60.117912"
       y2="19.49486" /></defs><g
     inkscape:label="Layer 1"
     inkscape:groupmode="layer"
     id="layer1"
     transform="translate(-15.057089,-6.3525666)"><g
       id="g14"
       transform="matrix(0.11464083,-0.0237032,0.0237032,0.11464083,30.298371,10.839507)"
       style="fill:#9f9f9f;fill-opacity:0;stroke:url(#linearGradient4);stroke-width:9.51685;stroke-dasharray:none;stroke-opacity:1"><path
         d="m 130.08,13.751 c -18.988,76.144 -63.088,142.35 -123,189.3 18.193,-9.375 38.83,-14.675 60.706,-14.675 20.942,0 40.746,4.855 58.361,13.494 15.126,-29.407 23.668,-62.756 23.668,-98.102 0,-32.147 -7.075,-62.639 -19.735,-90.019 z"
         fill="#ee2a25"
         id="path1"
         style="stroke:url(#linearGradient25);stroke-width:9.51685;stroke-dasharray:none;stroke-opacity:1" /><path
         d="m 150.81,200.8 c 9.726,-2.269 19.859,-3.472 30.276,-3.472 16.096,0 31.52,2.867 45.795,8.115 1.794,-11.172 2.741,-22.625 2.741,-34.301 0,-68.104 -31.709,-128.79 -81.158,-168.14 10.061,32.508 15.481,67.054 15.481,102.87 0,32.914 -4.585,64.757 -13.135,94.929 z"
         fill="#ee2a25"
         id="path2"
         style="stroke:url(#linearGradient26);stroke-width:9.51685;stroke-dasharray:none;stroke-opacity:1" /><path
         d="m 98.432,224.46 c -31.352,0 -62.111,-2.537 -92.085,-7.413 0.204,3.024 0.317,6.077 0.317,9.154 0,9.155 -0.92,18.096 -2.664,26.738 0.568,0.243 1.129,0.5 1.699,0.739 30.075,-2.962 60.728864,12.94956 91.580864,12.94956 26.697996,0 52.968136,-16.29156 79.089136,-14.06456 25.819,-11.232 49.04,-27.318 68.496,-47.121 -46.725,12.4 -95.806,19.018 -146.43,19.018 z"
         fill="#080606"
         id="path3"
         style="stroke:url(#linearGradient27);stroke-width:9.51685;stroke-dasharray:none;stroke-opacity:1"
         sodipodi:nodetypes="scsccsccss"
         clip-path="url(#clipPath20)"
         inkscape:path-effect="#path-effect20"
         inkscape:original-d="m 98.432,224.46 c -31.352,0 -62.111,-2.537 -92.085,-7.413 0.204,3.024 0.317,6.077 0.317,9.154 0,9.155 -0.92,18.096 -2.664,26.738 0.568,0.243 1.129,0.5 1.699,0.739 30.075,-2.962 60.728864,12.94956 91.580864,12.94956 26.697996,0 52.968136,-16.29156 79.089136,-14.06456 25.819,-11.232 49.04,-27.318 68.496,-47.121 -46.725,12.4 -95.806,19.018 -146.43,19.018 z" /></g><g
       id="g10"
       style="display:inline;fill:#9f9f9f;fill-opacity:0;stroke:none;stroke-width:1.20005;stroke-dasharray:none;stroke-opacity:0"
       transform="matrix(1.3496871,0,0,0.99402475,-13.863248,-6.5253135)"><path
         style="display:inline;fill:#2d87c8;fill-opacity:1;stroke:none;stroke-width:1.20005;stroke-linecap:square;stroke-linejoin:miter;stroke-dasharray:none;stroke-dashoffset:0;stroke-opacity:0;paint-order:fill markers stroke"
         d="m 21.427438,41.662921 c 0,0 6.879167,-7.9375 14.816667,0 7.9375,7.937499 15.257808,0 15.257808,0 0,0 6.857288,-7.9375 14.794788,0 7.9375,7.937499 15.279271,0 15.279271,0 0,0 6.878751,-7.9375 14.816251,0 V 55.720165 H 21.427438 Z"
         id="path14"
         sodipodi:nodetypes="cscsccccc"
         clip-path="url(#clipPath21)"
         inkscape:path-effect="#path-effect21"
         inkscape:original-d="m 21.427438,41.662921 c 0,0 6.879167,-7.9375 14.816667,0 7.9375,7.937499 15.257808,0 15.257808,0 0,0 6.857288,-7.9375 14.794788,0 7.9375,7.937499 15.279271,0 15.279271,0 0,0 6.878751,-7.9375 14.816251,0 V 55.720165 H 21.427438 Z" /><path
         style="fill:#256d9f;fill-opacity:1;stroke:none;stroke-width:1.20005;stroke-linecap:square;stroke-linejoin:miter;stroke-dasharray:none;stroke-dashoffset:0;stroke-opacity:0;paint-order:fill markers stroke"
         d="m 21.42748,47.450267 c 0,0 6.879167,-7.9375 14.816667,0 7.9375,7.937499 15.257808,0 15.257808,0 0,0 6.857288,-7.9375 14.794788,0 7.9375,7.937499 15.279271,0 15.279271,0 0,0 6.878751,-7.9375 14.816251,0 V 61.507511 H 21.42748 Z"
         id="path14-8"
         sodipodi:nodetypes="cscsccccc"
         clip-path="url(#clipPath24)"
         inkscape:path-effect="#path-effect24"
         inkscape:original-d="m 21.42748,47.450267 c 0,0 6.879167,-7.9375 14.816667,0 7.9375,7.937499 15.257808,0 15.257808,0 0,0 6.857288,-7.9375 14.794788,0 7.9375,7.937499 15.279271,0 15.279271,0 0,0 6.878751,-7.9375 14.816251,0 V 61.507511 H 21.42748 Z" /><path
         style="fill:#163e5c;fill-opacity:1;stroke:none;stroke-width:1.20005;stroke-linecap:square;stroke-linejoin:miter;stroke-dasharray:none;stroke-dashoffset:0;stroke-opacity:0;paint-order:fill markers stroke"
         d="m 21.42748,52.340926 c 0,0 6.879167,-7.9375 14.816667,0 7.9375,7.937499 15.257806,0 15.257806,0 0,0 6.85729,-7.9375 14.79479,0 7.9375,7.937499 15.27927,0 15.27927,0 0,0 6.87875,-7.9375 14.81625,0 v 7.871141 H 21.42748 Z"
         id="path14-8-1"
         sodipodi:nodetypes="cscsccccc" /></g><g
       id="g11"
       style="fill:none;fill-opacity:0;stroke:#000000;stroke-width:1.20005;stroke-dasharray:none;stroke-opacity:0"
       transform="matrix(1.3496871,0,0,0.99402474,-13.863248,-6.5253134)" /><text
       xml:space="preserve"
       style="font-size:8.81944px;line-height:7.25158px;font-family:OpenBus;-inkscape-font-specification:OpenBus;text-align:start;writing-mode:lr-tb;direction:ltr;text-anchor:start;fill:#f2f5f9;fill-opacity:1;stroke:#002244;stroke-width:0;stroke-linecap:square;stroke-linejoin:miter;stroke-dasharray:none;stroke-dashoffset:0;stroke-opacity:1;paint-order:fill markers stroke"
       x="101.06373"
       y="22.633039"
       id="text23"><tspan
         sodipodi:role="line"
         style="font-style:normal;font-variant:normal;font-weight:normal;font-stretch:normal;font-size:8.81944px;line-height:7.25158px;font-family:Nunito;-inkscape-font-specification:Nunito;text-align:center;text-anchor:middle;fill:#f2f5f9;fill-opacity:1;stroke-width:0;stroke-dasharray:none"
         x="101.06373"
         y="22.633039"
         id="tspan25">Skipper</tspan></text><text
       xml:space="preserve"
       style="font-size:8.81944px;line-height:7.25158px;font-family:OpenBus;-inkscape-font-specification:OpenBus;text-align:start;writing-mode:lr-tb;direction:ltr;text-anchor:start;fill:#f2f5f9;fill-opacity:1;stroke:#002244;stroke-width:0;stroke-linecap:square;stroke-linejoin:miter;stroke-dasharray:none;stroke-dashoffset:0;stroke-opacity:1;paint-order:fill markers stroke"
       x="77.568733"
       y="22.633039"
       id="text1"><tspan
         sodipodi:role="line"
         style="font-style:normal;font-variant:normal;font-weight:bold;font-stretch:normal;font-size:8.81944px;line-height:7.25158px;font-family:Nunito;-inkscape-font-specification:'Nunito Bold';text-align:center;text-anchor:middle;fill:#f2f5f9;fill-opacity:1;stroke-width:0;stroke-dasharray:none"
         x="77.568733"
         y="22.633039"
         id="tspan1">ESP</tspan></text></g></svg>
